<svg xmlns="http://www.w3.org/2000/svg" width="184.469" height="21" viewBox="0 0 184.469 21">
  <defs>
    <style>
      .cls-1 {
        fill: #212121;
        fill-rule: evenodd;
      }
    </style>
  </defs>
  <path id="logo" class="cls-1" d="M192.5,753.7V736.874h-5.569V753.7H192.5Zm23.544,0V736.874H211v8.641l-6.649-8.641H199.7V753.7h5.064v-8.592l6.625,8.592h4.656Zm21.264-12.433v-4.392H222.16v4.392h4.777V753.7h5.568V741.266h4.8Zm20.351-.168v-4.224H243.424V753.7h14.45v-4.224h-8.881v-2.089h7.872v-4.224h-7.872V741.1h8.664Zm16.8,12.6h6.288l-3.312-5.472A5.847,5.847,0,0,0,280.1,742.9c0-3.84-2.616-6.024-7.176-6.024h-8.137V753.7h5.568v-4.368h2.089Zm-4.105-8.592V741.1h2.569a1.763,1.763,0,0,1,1.9,1.968,1.8,1.8,0,0,1-1.9,2.041h-2.569Zm22.2,8.592V736.874h-5.568V753.7h5.568Zm15.6-16.993c-5.352,0-9.241,3.576-9.241,8.568,0,5.017,3.889,8.665,9.241,8.665s9.241-3.672,9.241-8.665C317.393,740.306,313.505,736.706,308.152,736.706Zm0.072,4.632c1.92,0,3.456,1.656,3.456,3.96s-1.536,4.009-3.456,4.009a3.808,3.808,0,0,1-3.6-4.009A3.748,3.748,0,0,1,308.224,741.338Zm25.2,12.361h6.288l-3.312-5.472a5.847,5.847,0,0,0,2.664-5.329c0-3.84-2.616-6.024-7.176-6.024h-8.137V753.7h5.569v-4.368h2.088Zm-4.1-8.592V741.1h2.568a1.763,1.763,0,0,1,1.9,1.968,1.8,1.8,0,0,1-1.9,2.041H329.32Zm-174.07-1.076v-9.187h9.187v9.187H155.25Zm11.813-9.187h9.187v9.187h-9.187v-9.187h0Zm0,21v-9.188h9.187v9.188h-9.187Zm-11.813,0v-9.188h9.187v9.188H155.25Z" transform="translate(-155.25 -734.844)"/>
</svg>
