<svg xmlns="http://www.w3.org/2000/svg" width="21.97" height="22" viewBox="0 0 21.97 22">
  <defs>
    <style>
      .cls-1 {
        fill-rule: evenodd;
      }
    </style>
  </defs>
  <path id="search" class="cls-1" d="M1242.55,734.5a9.237,9.237,0,0,0-6.37,2.625,9.566,9.566,0,0,0-1.93,2.883,9.06,9.06,0,0,0,0,6.984,9.553,9.553,0,0,0,1.93,2.883,9.109,9.109,0,0,0,2.86,1.922,9,9,0,0,0,3.51.7,8.743,8.743,0,0,0,3-.516,9.047,9.047,0,0,0,2.6-1.453l5.67,5.672a1.014,1.014,0,0,0,.73.305,0.9,0.9,0,0,0,.7-0.305,1,1,0,0,0,0-1.406l-5.67-5.672a9.011,9.011,0,0,0,1.46-2.625,8.861,8.861,0,0,0,.51-3,8.543,8.543,0,0,0-.73-3.492,8.741,8.741,0,0,0-4.78-4.782,8.628,8.628,0,0,0-3.49-.726h0Zm0,1.992a6.85,6.85,0,0,1,2.72.563,7.231,7.231,0,0,1,2.23,1.5,7.342,7.342,0,0,1,1.5,2.226,7.115,7.115,0,0,1,0,5.438,7.33,7.33,0,0,1-1.5,2.226,7.251,7.251,0,0,1-2.23,1.5,6.866,6.866,0,0,1-2.72.562,6.76,6.76,0,0,1-2.72-.562,7.227,7.227,0,0,1-2.25-1.5,6.751,6.751,0,0,1-1.47-2.226,6.77,6.77,0,0,1,0-5.438,6.761,6.761,0,0,1,1.47-2.226,7.207,7.207,0,0,1,2.25-1.5,6.744,6.744,0,0,1,2.72-.563h0Z" transform="translate(-1233.56 -734.5)"/>
</svg>
